<?xml version="1.0" encoding="UTF-8" ?>
<svg version="1.1" width="256" height="256" xmlns="http://www.w3.org/2000/svg" shape-rendering="crispEdges">
<rect x="40" y="0" width="8" height="8" fill="#000000" />
<rect x="48" y="0" width="8" height="8" fill="#222034" />
<rect x="56" y="0" width="8" height="168" fill="#000000" />
<rect x="64" y="0" width="8" height="8" fill="#222034" />
<rect x="72" y="0" width="8" height="8" fill="#000000" />
<rect x="80" y="0" width="8" height="8" fill="#222034" />
<rect x="88" y="0" width="8" height="80" fill="#000000" />
<rect x="96" y="0" width="8" height="8" fill="#222034" />
<rect x="104" y="0" width="8" height="8" fill="#000000" />
<rect x="112" y="0" width="8" height="8" fill="#222034" />
<rect x="120" y="0" width="8" height="64" fill="#000000" />
<rect x="128" y="0" width="8" height="8" fill="#222034" />
<rect x="136" y="0" width="8" height="8" fill="#000000" />
<rect x="144" y="0" width="8" height="8" fill="#222034" />
<rect x="152" y="0" width="8" height="72" fill="#000000" />
<rect x="160" y="0" width="8" height="8" fill="#222034" />
<rect x="168" y="0" width="8" height="8" fill="#000000" />
<rect x="176" y="0" width="8" height="8" fill="#222034" />
<rect x="184" y="0" width="8" height="48" fill="#000000" />
<rect x="192" y="0" width="8" height="8" fill="#222034" />
<rect x="200" y="0" width="8" height="8" fill="#000000" />
<rect x="208" y="0" width="8" height="8" fill="#222034" />
<rect x="24" y="8" width="8" height="8" fill="#222034" />
<rect x="32" y="8" width="8" height="8" fill="#000000" />
<rect x="40" y="8" width="8" height="8" fill="#222034" />
<rect x="48" y="8" width="8" height="8" fill="#000000" />
<rect x="64" y="8" width="8" height="8" fill="#000000" />
<rect x="72" y="8" width="8" height="8" fill="#222034" />
<rect x="80" y="8" width="8" height="8" fill="#000000" />
<rect x="96" y="8" width="8" height="8" fill="#000000" />
<rect x="104" y="8" width="8" height="8" fill="#222034" />
<rect x="112" y="8" width="8" height="8" fill="#000000" />
<rect x="128" y="8" width="8" height="8" fill="#000000" />
<rect x="136" y="8" width="8" height="8" fill="#222034" />
<rect x="144" y="8" width="8" height="8" fill="#000000" />
<rect x="160" y="8" width="8" height="8" fill="#000000" />
<rect x="168" y="8" width="8" height="8" fill="#222034" />
<rect x="176" y="8" width="8" height="8" fill="#000000" />
<rect x="192" y="8" width="8" height="8" fill="#000000" />
<rect x="200" y="8" width="8" height="8" fill="#222034" />
<rect x="208" y="8" width="8" height="8" fill="#000000" />
<rect x="216" y="8" width="8" height="8" fill="#222034" />
<rect x="224" y="8" width="8" height="8" fill="#000000" />
<rect x="16" y="16" width="8" height="8" fill="#222034" />
<rect x="24" y="16" width="8" height="8" fill="#000000" />
<rect x="32" y="16" width="8" height="8" fill="#222034" />
<rect x="40" y="16" width="8" height="24" fill="#000000" />
<rect x="48" y="16" width="8" height="8" fill="#222034" />
<rect x="64" y="16" width="8" height="8" fill="#222034" />
<rect x="72" y="16" width="8" height="80" fill="#000000" />
<rect x="80" y="16" width="8" height="8" fill="#222034" />
<rect x="96" y="16" width="8" height="8" fill="#222034" />
<rect x="104" y="16" width="8" height="56" fill="#000000" />
<rect x="112" y="16" width="8" height="8" fill="#222034" />
<rect x="128" y="16" width="8" height="8" fill="#222034" />
<rect x="136" y="16" width="8" height="48" fill="#000000" />
<rect x="144" y="16" width="8" height="8" fill="#222034" />
<rect x="160" y="16" width="8" height="8" fill="#222034" />
<rect x="168" y="16" width="8" height="48" fill="#000000" />
<rect x="176" y="16" width="8" height="8" fill="#222034" />
<rect x="192" y="16" width="8" height="8" fill="#222034" />
<rect x="200" y="16" width="8" height="24" fill="#000000" />
<rect x="208" y="16" width="8" height="8" fill="#222034" />
<rect x="216" y="16" width="8" height="8" fill="#000000" />
<rect x="224" y="16" width="8" height="8" fill="#222034" />
<rect x="232" y="16" width="8" height="24" fill="#000000" />
<rect x="8" y="24" width="16" height="8" fill="#000000" />
<rect x="24" y="24" width="8" height="8" fill="#222034" />
<rect x="32" y="24" width="8" height="8" fill="#000000" />
<rect x="48" y="24" width="8" height="8" fill="#000000" />
<rect x="64" y="24" width="8" height="8" fill="#000000" />
<rect x="80" y="24" width="8" height="8" fill="#000000" />
<rect x="96" y="24" width="8" height="8" fill="#000000" />
<rect x="112" y="24" width="8" height="8" fill="#000000" />
<rect x="128" y="24" width="8" height="8" fill="#000000" />
<rect x="144" y="24" width="8" height="8" fill="#000000" />
<rect x="160" y="24" width="8" height="8" fill="#000000" />
<rect x="176" y="24" width="8" height="8" fill="#000000" />
<rect x="192" y="24" width="8" height="8" fill="#000000" />
<rect x="208" y="24" width="8" height="8" fill="#000000" />
<rect x="216" y="24" width="8" height="8" fill="#222034" />
<rect x="224" y="24" width="8" height="8" fill="#000000" />
<rect x="240" y="24" width="8" height="8" fill="#000000" />
<rect x="8" y="32" width="8" height="8" fill="#000000" />
<rect x="16" y="32" width="8" height="8" fill="#222034" />
<rect x="24" y="32" width="8" height="176" fill="#000000" />
<rect x="32" y="32" width="8" height="8" fill="#222034" />
<rect x="48" y="32" width="8" height="8" fill="#222034" />
<rect x="64" y="32" width="8" height="8" fill="#222034" />
<rect x="80" y="32" width="8" height="8" fill="#222034" />
<rect x="96" y="32" width="8" height="8" fill="#222034" />
<rect x="112" y="32" width="8" height="8" fill="#222034" />
<rect x="128" y="32" width="8" height="8" fill="#222034" />
<rect x="144" y="32" width="8" height="8" fill="#222034" />
<rect x="160" y="32" width="8" height="8" fill="#222034" />
<rect x="176" y="32" width="8" height="8" fill="#222034" />
<rect x="192" y="32" width="8" height="8" fill="#222034" />
<rect x="208" y="32" width="8" height="8" fill="#222034" />
<rect x="216" y="32" width="16" height="8" fill="#EDD263" />
<rect x="240" y="32" width="8" height="8" fill="#222034" />
<rect x="0" y="40" width="8" height="8" fill="#000000" />
<rect x="8" y="40" width="8" height="8" fill="#222034" />
<rect x="16" y="40" width="8" height="8" fill="#000000" />
<rect x="32" y="40" width="8" height="8" fill="#000000" />
<rect x="40" y="40" width="8" height="8" fill="#222034" />
<rect x="48" y="40" width="8" height="8" fill="#000000" />
<rect x="64" y="40" width="8" height="8" fill="#000000" />
<rect x="80" y="40" width="8" height="8" fill="#000000" />
<rect x="96" y="40" width="8" height="8" fill="#000000" />
<rect x="112" y="40" width="8" height="8" fill="#000000" />
<rect x="128" y="40" width="8" height="24" fill="#000000" />
<rect x="144" y="40" width="8" height="8" fill="#000000" />
<rect x="160" y="40" width="8" height="8" fill="#000000" />
<rect x="176" y="40" width="8" height="8" fill="#000000" />
<rect x="192" y="40" width="8" height="8" fill="#000000" />
<rect x="200" y="40" width="8" height="8" fill="#EDD263" />
<rect x="208" y="40" width="8" height="8" fill="#C6AF53" />
<rect x="216" y="40" width="8" height="8" fill="#EDD263" />
<rect x="224" y="40" width="8" height="8" fill="#C6AF53" />
<rect x="232" y="40" width="8" height="8" fill="#EDD263" />
<rect x="240" y="40" width="16" height="8" fill="#000000" />
<rect x="0" y="48" width="8" height="8" fill="#222034" />
<rect x="8" y="48" width="8" height="24" fill="#000000" />
<rect x="16" y="48" width="8" height="8" fill="#222034" />
<rect x="32" y="48" width="8" height="8" fill="#222034" />
<rect x="40" y="48" width="8" height="136" fill="#000000" />
<rect x="48" y="48" width="8" height="8" fill="#222034" />
<rect x="64" y="48" width="8" height="8" fill="#222034" />
<rect x="80" y="48" width="8" height="8" fill="#222034" />
<rect x="96" y="48" width="8" height="8" fill="#222034" />
<rect x="112" y="48" width="8" height="8" fill="#222034" />
<rect x="144" y="48" width="8" height="8" fill="#222034" />
<rect x="160" y="48" width="8" height="8" fill="#222034" />
<rect x="176" y="48" width="8" height="8" fill="#222034" />
<rect x="184" y="48" width="8" height="16" fill="#C6AF53" />
<rect x="192" y="48" width="8" height="8" fill="#EDD263" />
<rect x="200" y="48" width="8" height="8" fill="#C6AF53" />
<rect x="208" y="48" width="8" height="8" fill="#222034" />
<rect x="216" y="48" width="8" height="16" fill="#000000" />
<rect x="224" y="48" width="8" height="8" fill="#EDD263" />
<rect x="232" y="48" width="8" height="8" fill="#C6AF53" />
<rect x="240" y="48" width="8" height="8" fill="#222034" />
<rect x="248" y="48" width="8" height="8" fill="#000000" />
<rect x="0" y="56" width="8" height="8" fill="#000000" />
<rect x="16" y="56" width="8" height="8" fill="#000000" />
<rect x="32" y="56" width="8" height="8" fill="#000000" />
<rect x="48" y="56" width="8" height="8" fill="#000000" />
<rect x="64" y="56" width="8" height="8" fill="#000000" />
<rect x="80" y="56" width="8" height="8" fill="#000000" />
<rect x="96" y="56" width="8" height="8" fill="#000000" />
<rect x="112" y="56" width="8" height="8" fill="#000000" />
<rect x="144" y="56" width="8" height="8" fill="#000000" />
<rect x="160" y="56" width="8" height="8" fill="#000000" />
<rect x="176" y="56" width="8" height="16" fill="#C6AF53" />
<rect x="192" y="56" width="8" height="8" fill="#C6AF53" />
<rect x="200" y="56" width="16" height="8" fill="#000000" />
<rect x="224" y="56" width="8" height="8" fill="#C6AF53" />
<rect x="232" y="56" width="16" height="8" fill="#000000" />
<rect x="248" y="56" width="8" height="8" fill="#222034" />
<rect x="0" y="64" width="8" height="8" fill="#222034" />
<rect x="16" y="64" width="8" height="8" fill="#222034" />
<rect x="32" y="64" width="8" height="8" fill="#222034" />
<rect x="48" y="64" width="8" height="8" fill="#222034" />
<rect x="64" y="64" width="8" height="8" fill="#222034" />
<rect x="80" y="64" width="8" height="8" fill="#222034" />
<rect x="96" y="64" width="8" height="8" fill="#222034" />
<rect x="112" y="64" width="8" height="8" fill="#F2F07B" />
<rect x="120" y="64" width="8" height="80" fill="#E5E355" />
<rect x="128" y="64" width="24" height="8" fill="#F2F07B" />
<rect x="160" y="64" width="8" height="8" fill="#222034" />
<rect x="168" y="64" width="8" height="16" fill="#C6AF53" />
<rect x="184" y="64" width="8" height="32" fill="#000000" />
<rect x="192" y="64" width="8" height="8" fill="#222034" />
<rect x="200" y="64" width="8" height="16" fill="#000000" />
<rect x="208" y="64" width="8" height="8" fill="#222034" />
<rect x="216" y="64" width="8" height="16" fill="#C6AF53" />
<rect x="224" y="64" width="8" height="8" fill="#EDD263" />
<rect x="232" y="64" width="8" height="8" fill="#000000" />
<rect x="240" y="64" width="8" height="8" fill="#222034" />
<rect x="248" y="64" width="8" height="120" fill="#000000" />
<rect x="0" y="72" width="8" height="8" fill="#000000" />
<rect x="8" y="72" width="8" height="8" fill="#222034" />
<rect x="16" y="72" width="8" height="8" fill="#000000" />
<rect x="32" y="72" width="8" height="8" fill="#000000" />
<rect x="48" y="72" width="8" height="8" fill="#000000" />
<rect x="64" y="72" width="8" height="8" fill="#000000" />
<rect x="80" y="72" width="8" height="8" fill="#000000" />
<rect x="96" y="72" width="24" height="8" fill="#E5E355" />
<rect x="128" y="72" width="8" height="8" fill="#E5E355" />
<rect x="136" y="72" width="8" height="8" fill="#F2F07B" />
<rect x="144" y="72" width="8" height="8" fill="#E5E355" />
<rect x="152" y="72" width="8" height="8" fill="#F2F07B" />
<rect x="160" y="72" width="8" height="8" fill="#C6AF53" />
<rect x="176" y="72" width="8" height="8" fill="#000000" />
<rect x="192" y="72" width="8" height="8" fill="#000000" />
<rect x="208" y="72" width="8" height="16" fill="#C6AF53" />
<rect x="224" y="72" width="8" height="8" fill="#000000" />
<rect x="232" y="72" width="8" height="8" fill="#222034" />
<rect x="240" y="72" width="8" height="8" fill="#000000" />
<rect x="0" y="80" width="8" height="8" fill="#222034" />
<rect x="8" y="80" width="8" height="24" fill="#000000" />
<rect x="16" y="80" width="8" height="8" fill="#222034" />
<rect x="32" y="80" width="8" height="8" fill="#222034" />
<rect x="48" y="80" width="8" height="8" fill="#222034" />
<rect x="64" y="80" width="8" height="8" fill="#222034" />
<rect x="80" y="80" width="8" height="8" fill="#222034" />
<rect x="88" y="80" width="24" height="40" fill="#E5E355" />
<rect x="112" y="80" width="8" height="8" fill="#F2F07B" />
<rect x="128" y="80" width="8" height="8" fill="#F2F07B" />
<rect x="136" y="80" width="8" height="64" fill="#E5E355" />
<rect x="144" y="80" width="8" height="8" fill="#F2F07B" />
<rect x="152" y="80" width="8" height="64" fill="#E5E355" />
<rect x="160" y="80" width="8" height="8" fill="#F2F07B" />
<rect x="168" y="80" width="8" height="40" fill="#E5E355" />
<rect x="176" y="80" width="8" height="8" fill="#222034" />
<rect x="192" y="80" width="8" height="8" fill="#222034" />
<rect x="200" y="80" width="8" height="16" fill="#C6AF53" />
<rect x="216" y="80" width="8" height="136" fill="#000000" />
<rect x="224" y="80" width="8" height="8" fill="#222034" />
<rect x="232" y="80" width="8" height="24" fill="#000000" />
<rect x="240" y="80" width="8" height="8" fill="#222034" />
<rect x="0" y="88" width="8" height="8" fill="#000000" />
<rect x="16" y="88" width="8" height="8" fill="#000000" />
<rect x="32" y="88" width="8" height="8" fill="#000000" />
<rect x="48" y="88" width="8" height="8" fill="#000000" />
<rect x="64" y="88" width="8" height="8" fill="#000000" />
<rect x="80" y="88" width="8" height="16" fill="#E5E355" />
<rect x="112" y="88" width="8" height="32" fill="#E5E355" />
<rect x="128" y="88" width="8" height="32" fill="#E5E355" />
<rect x="144" y="88" width="8" height="48" fill="#E5E355" />
<rect x="160" y="88" width="8" height="8" fill="#E5E355" />
<rect x="176" y="88" width="8" height="8" fill="#E5E355" />
<rect x="192" y="88" width="8" height="16" fill="#C6AF53" />
<rect x="208" y="88" width="8" height="8" fill="#000000" />
<rect x="224" y="88" width="8" height="8" fill="#000000" />
<rect x="240" y="88" width="8" height="8" fill="#000000" />
<rect x="0" y="96" width="8" height="8" fill="#222034" />
<rect x="16" y="96" width="8" height="8" fill="#222034" />
<rect x="32" y="96" width="8" height="8" fill="#222034" />
<rect x="48" y="96" width="8" height="8" fill="#222034" />
<rect x="64" y="96" width="8" height="8" fill="#222034" />
<rect x="72" y="96" width="8" height="48" fill="#E5E355" />
<rect x="160" y="96" width="8" height="8" fill="#F2F07B" />
<rect x="176" y="96" width="8" height="8" fill="#F2F07B" />
<rect x="184" y="96" width="8" height="24" fill="#C6AF53" />
<rect x="200" y="96" width="8" height="104" fill="#000000" />
<rect x="208" y="96" width="8" height="8" fill="#222034" />
<rect x="224" y="96" width="8" height="8" fill="#222034" />
<rect x="240" y="96" width="8" height="8" fill="#222034" />
<rect x="0" y="104" width="8" height="8" fill="#000000" />
<rect x="8" y="104" width="8" height="8" fill="#222034" />
<rect x="16" y="104" width="8" height="8" fill="#000000" />
<rect x="32" y="104" width="8" height="8" fill="#000000" />
<rect x="48" y="104" width="8" height="8" fill="#000000" />
<rect x="64" y="104" width="8" height="16" fill="#E5E355" />
<rect x="80" y="104" width="8" height="8" fill="#8D8B32" />
<rect x="160" y="104" width="8" height="16" fill="#E5E355" />
<rect x="176" y="104" width="8" height="8" fill="#E5E355" />
<rect x="192" y="104" width="8" height="8" fill="#000000" />
<rect x="208" y="104" width="8" height="8" fill="#000000" />
<rect x="224" y="104" width="8" height="8" fill="#000000" />
<rect x="232" y="104" width="8" height="8" fill="#222034" />
<rect x="240" y="104" width="8" height="8" fill="#000000" />
<rect x="0" y="112" width="8" height="8" fill="#222034" />
<rect x="8" y="112" width="8" height="24" fill="#000000" />
<rect x="16" y="112" width="8" height="8" fill="#222034" />
<rect x="32" y="112" width="8" height="8" fill="#222034" />
<rect x="48" y="112" width="8" height="8" fill="#222034" />
<rect x="80" y="112" width="8" height="8" fill="#E5E355" />
<rect x="176" y="112" width="8" height="24" fill="#C6AF53" />
<rect x="192" y="112" width="8" height="40" fill="#E5E355" />
<rect x="208" y="112" width="8" height="8" fill="#222034" />
<rect x="224" y="112" width="8" height="8" fill="#222034" />
<rect x="232" y="112" width="8" height="56" fill="#000000" />
<rect x="240" y="112" width="8" height="8" fill="#222034" />
<rect x="0" y="120" width="8" height="8" fill="#000000" />
<rect x="16" y="120" width="8" height="8" fill="#000000" />
<rect x="32" y="120" width="8" height="8" fill="#000000" />
<rect x="48" y="120" width="8" height="8" fill="#000000" />
<rect x="64" y="120" width="8" height="8" fill="#8D8B32" />
<rect x="80" y="120" width="8" height="8" fill="#8D8B32" />
<rect x="88" y="120" width="8" height="8" fill="#E5E355" />
<rect x="96" y="120" width="8" height="8" fill="#8D8B32" />
<rect x="104" y="120" width="8" height="24" fill="#E5E355" />
<rect x="112" y="120" width="8" height="8" fill="#8D8B32" />
<rect x="128" y="120" width="8" height="8" fill="#8D8B32" />
<rect x="160" y="120" width="8" height="8" fill="#8D8B32" />
<rect x="168" y="120" width="8" height="24" fill="#C6AF53" />
<rect x="184" y="120" width="8" height="48" fill="#E5E355" />
<rect x="208" y="120" width="8" height="8" fill="#000000" />
<rect x="224" y="120" width="8" height="8" fill="#000000" />
<rect x="240" y="120" width="8" height="8" fill="#000000" />
<rect x="0" y="128" width="8" height="8" fill="#222034" />
<rect x="16" y="128" width="8" height="8" fill="#222034" />
<rect x="32" y="128" width="8" height="8" fill="#222034" />
<rect x="48" y="128" width="8" height="8" fill="#222034" />
<rect x="64" y="128" width="8" height="8" fill="#E5E355" />
<rect x="80" y="128" width="8" height="8" fill="#E5E355" />
<rect x="88" y="128" width="8" height="8" fill="#8D8B32" />
<rect x="96" y="128" width="8" height="8" fill="#E5E355" />
<rect x="112" y="128" width="8" height="8" fill="#E5E355" />
<rect x="128" y="128" width="8" height="8" fill="#E5E355" />
<rect x="160" y="128" width="8" height="8" fill="#E5E355" />
<rect x="208" y="128" width="8" height="8" fill="#222034" />
<rect x="224" y="128" width="8" height="8" fill="#222034" />
<rect x="240" y="128" width="8" height="8" fill="#222034" />
<rect x="0" y="136" width="8" height="8" fill="#000000" />
<rect x="8" y="136" width="8" height="8" fill="#222034" />
<rect x="16" y="136" width="8" height="8" fill="#000000" />
<rect x="32" y="136" width="8" height="8" fill="#000000" />
<rect x="48" y="136" width="8" height="8" fill="#000000" />
<rect x="64" y="136" width="8" height="8" fill="#8D8B32" />
<rect x="80" y="136" width="8" height="8" fill="#8D8B32" />
<rect x="88" y="136" width="8" height="8" fill="#E5E355" />
<rect x="96" y="136" width="8" height="8" fill="#8D8B32" />
<rect x="112" y="136" width="8" height="8" fill="#8D8B32" />
<rect x="128" y="136" width="8" height="8" fill="#8D8B32" />
<rect x="144" y="136" width="8" height="8" fill="#8D8B32" />
<rect x="160" y="136" width="8" height="8" fill="#C6AF53" />
<rect x="176" y="136" width="8" height="40" fill="#E5E355" />
<rect x="208" y="136" width="8" height="8" fill="#000000" />
<rect x="224" y="136" width="8" height="8" fill="#000000" />
<rect x="240" y="136" width="8" height="8" fill="#000000" />
<rect x="0" y="144" width="8" height="8" fill="#222034" />
<rect x="8" y="144" width="8" height="24" fill="#000000" />
<rect x="16" y="144" width="8" height="8" fill="#222034" />
<rect x="32" y="144" width="8" height="8" fill="#222034" />
<rect x="48" y="144" width="8" height="8" fill="#222034" />
<rect x="64" y="144" width="8" height="8" fill="#E5E355" />
<rect x="72" y="144" width="8" height="24" fill="#8D8B32" />
<rect x="80" y="144" width="8" height="8" fill="#E5E355" />
<rect x="88" y="144" width="8" height="40" fill="#8D8B32" />
<rect x="96" y="144" width="8" height="8" fill="#E5E355" />
<rect x="104" y="144" width="8" height="40" fill="#8D8B32" />
<rect x="112" y="144" width="8" height="8" fill="#E5E355" />
<rect x="120" y="144" width="8" height="8" fill="#8D8B32" />
<rect x="128" y="144" width="8" height="8" fill="#E5E355" />
<rect x="136" y="144" width="8" height="16" fill="#8D8B32" />
<rect x="144" y="144" width="8" height="8" fill="#E5E355" />
<rect x="152" y="144" width="8" height="16" fill="#C6AF53" />
<rect x="160" y="144" width="8" height="8" fill="#7B6E37" />
<rect x="168" y="144" width="8" height="40" fill="#E5E355" />
<rect x="208" y="144" width="8" height="8" fill="#222034" />
<rect x="224" y="144" width="8" height="8" fill="#222034" />
<rect x="240" y="144" width="8" height="8" fill="#222034" />
<rect x="0" y="152" width="8" height="8" fill="#000000" />
<rect x="16" y="152" width="8" height="8" fill="#000000" />
<rect x="32" y="152" width="8" height="8" fill="#000000" />
<rect x="48" y="152" width="8" height="8" fill="#000000" />
<rect x="64" y="152" width="8" height="8" fill="#000000" />
<rect x="80" y="152" width="8" height="24" fill="#8D8B32" />
<rect x="96" y="152" width="8" height="8" fill="#8D8B32" />
<rect x="112" y="152" width="8" height="8" fill="#8D8B32" />
<rect x="120" y="152" width="8" height="8" fill="#E5E355" />
<rect x="128" y="152" width="8" height="8" fill="#8D8B32" />
<rect x="144" y="152" width="8" height="8" fill="#C6AF53" />
<rect x="160" y="152" width="8" height="32" fill="#E5E355" />
<rect x="192" y="152" width="8" height="8" fill="#000000" />
<rect x="208" y="152" width="8" height="8" fill="#000000" />
<rect x="224" y="152" width="8" height="8" fill="#000000" />
<rect x="240" y="152" width="8" height="8" fill="#000000" />
<rect x="0" y="160" width="8" height="8" fill="#222034" />
<rect x="16" y="160" width="8" height="8" fill="#222034" />
<rect x="32" y="160" width="8" height="8" fill="#222034" />
<rect x="48" y="160" width="8" height="8" fill="#222034" />
<rect x="64" y="160" width="8" height="8" fill="#7B6E37" />
<rect x="96" y="160" width="8" height="8" fill="#E5E355" />
<rect x="112" y="160" width="8" height="8" fill="#E5E355" />
<rect x="120" y="160" width="8" height="16" fill="#8D8B32" />
<rect x="128" y="160" width="8" height="8" fill="#E5E355" />
<rect x="136" y="160" width="8" height="8" fill="#C6AF53" />
<rect x="144" y="160" width="8" height="8" fill="#7B6E37" />
<rect x="152" y="160" width="8" height="16" fill="#E5E355" />
<rect x="192" y="160" width="8" height="8" fill="#222034" />
<rect x="208" y="160" width="8" height="8" fill="#222034" />
<rect x="224" y="160" width="8" height="8" fill="#222034" />
<rect x="240" y="160" width="8" height="8" fill="#222034" />
<rect x="0" y="168" width="8" height="8" fill="#000000" />
<rect x="8" y="168" width="8" height="8" fill="#222034" />
<rect x="16" y="168" width="8" height="8" fill="#000000" />
<rect x="32" y="168" width="8" height="8" fill="#000000" />
<rect x="48" y="168" width="8" height="8" fill="#000000" />
<rect x="56" y="168" width="8" height="16" fill="#7B6E37" />
<rect x="64" y="168" width="8" height="8" fill="#C6AF53" />
<rect x="72" y="168" width="8" height="32" fill="#000000" />
<rect x="96" y="168" width="8" height="16" fill="#8D8B32" />
<rect x="112" y="168" width="8" height="8" fill="#8D8B32" />
<rect x="128" y="168" width="8" height="8" fill="#C6AF53" />
<rect x="136" y="168" width="8" height="8" fill="#7B6E37" />
<rect x="144" y="168" width="8" height="8" fill="#C6AF53" />
<rect x="184" y="168" width="16" height="24" fill="#000000" />
<rect x="208" y="168" width="8" height="8" fill="#000000" />
<rect x="224" y="168" width="8" height="8" fill="#000000" />
<rect x="232" y="168" width="8" height="8" fill="#222034" />
<rect x="240" y="168" width="8" height="8" fill="#000000" />
<rect x="0" y="176" width="8" height="8" fill="#222034" />
<rect x="8" y="176" width="8" height="24" fill="#000000" />
<rect x="16" y="176" width="8" height="8" fill="#222034" />
<rect x="32" y="176" width="8" height="8" fill="#222034" />
<rect x="48" y="176" width="8" height="8" fill="#7B6E37" />
<rect x="64" y="176" width="8" height="16" fill="#000000" />
<rect x="80" y="176" width="8" height="8" fill="#222034" />
<rect x="112" y="176" width="8" height="8" fill="#7B6E37" />
<rect x="120" y="176" width="8" height="8" fill="#C6AF53" />
<rect x="128" y="176" width="8" height="8" fill="#7B6E37" />
<rect x="136" y="176" width="8" height="24" fill="#8D8B32" />
<rect x="144" y="176" width="8" height="8" fill="#E5E355" />
<rect x="152" y="176" width="8" height="8" fill="#8D8B32" />
<rect x="176" y="176" width="8" height="8" fill="#222034" />
<rect x="208" y="176" width="8" height="8" fill="#222034" />
<rect x="224" y="176" width="8" height="8" fill="#222034" />
<rect x="232" y="176" width="8" height="24" fill="#000000" />
<rect x="240" y="176" width="8" height="8" fill="#222034" />
<rect x="0" y="184" width="8" height="8" fill="#000000" />
<rect x="16" y="184" width="8" height="8" fill="#000000" />
<rect x="32" y="184" width="8" height="8" fill="#000000" />
<rect x="40" y="184" width="8" height="16" fill="#7B6E37" />
<rect x="48" y="184" width="8" height="8" fill="#C6AF53" />
<rect x="56" y="184" width="8" height="24" fill="#000000" />
<rect x="80" y="184" width="16" height="8" fill="#000000" />
<rect x="96" y="184" width="8" height="8" fill="#C6AF53" />
<rect x="104" y="184" width="8" height="8" fill="#7B6E37" />
<rect x="112" y="184" width="8" height="8" fill="#C6AF53" />
<rect x="120" y="184" width="16" height="16" fill="#8D8B32" />
<rect x="144" y="184" width="8" height="8" fill="#8D8B32" />
<rect x="152" y="184" width="8" height="8" fill="#E5E355" />
<rect x="160" y="184" width="8" height="8" fill="#8D8B32" />
<rect x="168" y="184" width="16" height="8" fill="#000000" />
<rect x="208" y="184" width="8" height="8" fill="#000000" />
<rect x="224" y="184" width="8" height="8" fill="#000000" />
<rect x="240" y="184" width="8" height="8" fill="#000000" />
<rect x="248" y="184" width="8" height="8" fill="#222034" />
<rect x="0" y="192" width="8" height="8" fill="#222034" />
<rect x="16" y="192" width="8" height="8" fill="#222034" />
<rect x="32" y="192" width="8" height="40" fill="#7B6E37" />
<rect x="48" y="192" width="8" height="8" fill="#222034" />
<rect x="64" y="192" width="8" height="8" fill="#222034" />
<rect x="80" y="192" width="24" height="8" fill="#7B6E37" />
<rect x="104" y="192" width="8" height="40" fill="#000000" />
<rect x="112" y="192" width="8" height="8" fill="#8D8B32" />
<rect x="144" y="192" width="8" height="8" fill="#E5E355" />
<rect x="152" y="192" width="8" height="64" fill="#000000" />
<rect x="160" y="192" width="8" height="8" fill="#222034" />
<rect x="168" y="192" width="8" height="40" fill="#000000" />
<rect x="176" y="192" width="8" height="8" fill="#222034" />
<rect x="184" y="192" width="8" height="56" fill="#000000" />
<rect x="192" y="192" width="8" height="8" fill="#222034" />
<rect x="208" y="192" width="8" height="8" fill="#222034" />
<rect x="224" y="192" width="8" height="8" fill="#222034" />
<rect x="240" y="192" width="8" height="8" fill="#222034" />
<rect x="248" y="192" width="8" height="24" fill="#000000" />
<rect x="0" y="200" width="8" height="8" fill="#000000" />
<rect x="8" y="200" width="8" height="8" fill="#222034" />
<rect x="16" y="200" width="8" height="8" fill="#000000" />
<rect x="40" y="200" width="8" height="8" fill="#222034" />
<rect x="48" y="200" width="8" height="8" fill="#000000" />
<rect x="64" y="200" width="8" height="8" fill="#000000" />
<rect x="72" y="200" width="8" height="16" fill="#7B6E37" />
<rect x="80" y="200" width="8" height="8" fill="#C6AF53" />
<rect x="88" y="200" width="16" height="24" fill="#000000" />
<rect x="112" y="200" width="40" height="8" fill="#000000" />
<rect x="160" y="200" width="8" height="24" fill="#000000" />
<rect x="176" y="200" width="8" height="8" fill="#000000" />
<rect x="192" y="200" width="8" height="8" fill="#000000" />
<rect x="200" y="200" width="8" height="8" fill="#222034" />
<rect x="208" y="200" width="8" height="8" fill="#000000" />
<rect x="224" y="200" width="8" height="8" fill="#000000" />
<rect x="232" y="200" width="8" height="8" fill="#222034" />
<rect x="240" y="200" width="8" height="8" fill="#000000" />
<rect x="0" y="208" width="8" height="8" fill="#222034" />
<rect x="8" y="208" width="8" height="24" fill="#000000" />
<rect x="16" y="208" width="8" height="8" fill="#222034" />
<rect x="24" y="208" width="8" height="16" fill="#7B6E37" />
<rect x="40" y="208" width="8" height="8" fill="#000000" />
<rect x="48" y="208" width="8" height="8" fill="#222034" />
<rect x="56" y="208" width="16" height="8" fill="#7B6E37" />
<rect x="80" y="208" width="8" height="8" fill="#222034" />
<rect x="112" y="208" width="8" height="8" fill="#222034" />
<rect x="120" y="208" width="8" height="48" fill="#000000" />
<rect x="128" y="208" width="8" height="8" fill="#222034" />
<rect x="136" y="208" width="8" height="48" fill="#000000" />
<rect x="144" y="208" width="8" height="8" fill="#222034" />
<rect x="176" y="208" width="8" height="8" fill="#222034" />
<rect x="192" y="208" width="8" height="8" fill="#222034" />
<rect x="200" y="208" width="8" height="24" fill="#000000" />
<rect x="208" y="208" width="8" height="8" fill="#222034" />
<rect x="224" y="208" width="8" height="8" fill="#222034" />
<rect x="232" y="208" width="8" height="24" fill="#000000" />
<rect x="240" y="208" width="8" height="8" fill="#222034" />
<rect x="16" y="216" width="8" height="8" fill="#000000" />
<rect x="40" y="216" width="24" height="8" fill="#7B6E37" />
<rect x="64" y="216" width="24" height="8" fill="#000000" />
<rect x="112" y="216" width="8" height="8" fill="#000000" />
<rect x="128" y="216" width="8" height="8" fill="#000000" />
<rect x="144" y="216" width="8" height="8" fill="#000000" />
<rect x="176" y="216" width="8" height="8" fill="#000000" />
<rect x="192" y="216" width="8" height="8" fill="#000000" />
<rect x="208" y="216" width="8" height="8" fill="#000000" />
<rect x="216" y="216" width="8" height="8" fill="#222034" />
<rect x="224" y="216" width="8" height="8" fill="#000000" />
<rect x="240" y="216" width="8" height="8" fill="#000000" />
<rect x="16" y="224" width="8" height="8" fill="#222034" />
<rect x="24" y="224" width="8" height="24" fill="#000000" />
<rect x="40" y="224" width="8" height="8" fill="#7B6E37" />
<rect x="48" y="224" width="8" height="8" fill="#222034" />
<rect x="56" y="224" width="8" height="24" fill="#000000" />
<rect x="64" y="224" width="8" height="8" fill="#222034" />
<rect x="72" y="224" width="8" height="32" fill="#000000" />
<rect x="80" y="224" width="8" height="8" fill="#222034" />
<rect x="88" y="224" width="8" height="32" fill="#000000" />
<rect x="96" y="224" width="8" height="8" fill="#222034" />
<rect x="112" y="224" width="8" height="8" fill="#222034" />
<rect x="128" y="224" width="8" height="8" fill="#222034" />
<rect x="144" y="224" width="8" height="8" fill="#222034" />
<rect x="160" y="224" width="8" height="8" fill="#222034" />
<rect x="176" y="224" width="8" height="8" fill="#222034" />
<rect x="192" y="224" width="8" height="8" fill="#222034" />
<rect x="208" y="224" width="8" height="8" fill="#222034" />
<rect x="216" y="224" width="8" height="24" fill="#000000" />
<rect x="224" y="224" width="8" height="8" fill="#222034" />
<rect x="240" y="224" width="8" height="8" fill="#222034" />
<rect x="16" y="232" width="8" height="8" fill="#000000" />
<rect x="32" y="232" width="8" height="8" fill="#000000" />
<rect x="40" y="232" width="8" height="8" fill="#222034" />
<rect x="48" y="232" width="8" height="8" fill="#000000" />
<rect x="64" y="232" width="8" height="8" fill="#000000" />
<rect x="80" y="232" width="8" height="8" fill="#000000" />
<rect x="96" y="232" width="8" height="8" fill="#000000" />
<rect x="104" y="232" width="8" height="8" fill="#222034" />
<rect x="112" y="232" width="8" height="8" fill="#000000" />
<rect x="128" y="232" width="8" height="8" fill="#000000" />
<rect x="144" y="232" width="8" height="8" fill="#000000" />
<rect x="160" y="232" width="8" height="8" fill="#000000" />
<rect x="168" y="232" width="8" height="8" fill="#222034" />
<rect x="176" y="232" width="8" height="8" fill="#000000" />
<rect x="192" y="232" width="8" height="8" fill="#000000" />
<rect x="200" y="232" width="8" height="8" fill="#222034" />
<rect x="208" y="232" width="8" height="8" fill="#000000" />
<rect x="224" y="232" width="8" height="8" fill="#000000" />
<rect x="232" y="232" width="8" height="8" fill="#222034" />
<rect x="32" y="240" width="8" height="8" fill="#222034" />
<rect x="40" y="240" width="8" height="16" fill="#000000" />
<rect x="48" y="240" width="8" height="8" fill="#222034" />
<rect x="64" y="240" width="8" height="8" fill="#222034" />
<rect x="80" y="240" width="8" height="8" fill="#222034" />
<rect x="96" y="240" width="8" height="8" fill="#222034" />
<rect x="104" y="240" width="8" height="16" fill="#000000" />
<rect x="112" y="240" width="8" height="8" fill="#222034" />
<rect x="128" y="240" width="8" height="8" fill="#222034" />
<rect x="144" y="240" width="8" height="8" fill="#222034" />
<rect x="160" y="240" width="8" height="8" fill="#222034" />
<rect x="168" y="240" width="8" height="16" fill="#000000" />
<rect x="176" y="240" width="8" height="8" fill="#222034" />
<rect x="192" y="240" width="8" height="8" fill="#222034" />
<rect x="200" y="240" width="8" height="16" fill="#000000" />
<rect x="208" y="240" width="8" height="8" fill="#222034" />
<rect x="224" y="240" width="8" height="8" fill="#222034" />
<rect x="48" y="248" width="8" height="8" fill="#000000" />
<rect x="56" y="248" width="8" height="8" fill="#222034" />
<rect x="64" y="248" width="8" height="8" fill="#000000" />
<rect x="80" y="248" width="8" height="8" fill="#000000" />
<rect x="96" y="248" width="8" height="8" fill="#000000" />
<rect x="112" y="248" width="8" height="8" fill="#000000" />
<rect x="128" y="248" width="8" height="8" fill="#000000" />
<rect x="144" y="248" width="8" height="8" fill="#000000" />
<rect x="160" y="248" width="8" height="8" fill="#000000" />
<rect x="176" y="248" width="8" height="8" fill="#000000" />
<rect x="184" y="248" width="8" height="8" fill="#222034" />
<rect x="192" y="248" width="8" height="8" fill="#000000" />
<rect x="208" y="248" width="8" height="8" fill="#000000" />
</svg>